# xmcd CD database file
#
# Track frame offsets:
#	150
#	24690
#	46777
#	81695
#	100902
#	117377
#	144340
#	174430
#	200382
#	219652
#	239535
#
# Disc length: 3568 seconds
#
# Revision: 1
# Processed by: cddbd v1.5.2PL0 Copyright (c) Steve Scherf et al.
# Submitted via: CDex 1.70beta2
#
DISCID=9c0dee0b
DTITLE=Sonny Rollins - The Contemporary Leaders
DYEAR=1958
DGENRE=Jazz
TTITLE0=I've Told Ev'ry Little Star
TTITLE1=Rock-A-Bye Your Baby With A Dixie Melody
TTITLE2=How High The Moon
TTITLE3=You
TTITLE4=I've Found A New Baby
TTITLE5=Alone Together
TTITLE6=In The Chapel In The Moonlight
TTITLE7=The Song Is You
TTITLE8=You (Alternate Take)
TTITLE9=I've Found A New Baby (Alternate Take)
TTITLE10=The Song Is You (Alternate Take)
EXTD=YEAR: 1958
EXTT0=
EXTT1=
EXTT2=
EXTT3=
EXTT4=
EXTT5=
EXTT6=
EXTT7=
EXTT8=
EXTT9=
EXTT10=
PLAYORDER=
